<svg id="visual" viewBox="0 0 1000 150" width="1000" height="150" xmlns="http://www.w3.org/2000/svg" xmlns:xlink="http://www.w3.org/1999/xlink" version="1.1"><path d="M0 24L53 24L53 28L105 28L105 23L158 23L158 18L211 18L211 23L263 23L263 18L316 18L316 23L368 23L368 21L421 21L421 18L474 18L474 16L526 16L526 20L579 20L579 12L632 12L632 17L684 17L684 12L737 12L737 22L789 22L789 25L842 25L842 24L895 24L895 15L947 15L947 17L1000 17L1000 17L1000 151L1000 151L947 151L947 151L895 151L895 151L842 151L842 151L789 151L789 151L737 151L737 151L684 151L684 151L632 151L632 151L579 151L579 151L526 151L526 151L474 151L474 151L421 151L421 151L368 151L368 151L316 151L316 151L263 151L263 151L211 151L211 151L158 151L158 151L105 151L105 151L53 151L53 151L0 151Z" fill="#590a05"></path><path d="M0 38L53 38L53 38L105 38L105 39L158 39L158 49L211 49L211 42L263 42L263 46L316 46L316 38L368 38L368 34L421 34L421 42L474 42L474 49L526 49L526 37L579 37L579 48L632 48L632 41L684 41L684 40L737 40L737 35L789 35L789 39L842 39L842 44L895 44L895 34L947 34L947 46L1000 46L1000 49L1000 151L1000 151L947 151L947 151L895 151L895 151L842 151L842 151L789 151L789 151L737 151L737 151L684 151L684 151L632 151L632 151L579 151L579 151L526 151L526 151L474 151L474 151L421 151L421 151L368 151L368 151L316 151L316 151L263 151L263 151L211 151L211 151L158 151L158 151L105 151L105 151L53 151L53 151L0 151Z" fill="#710604"></path><path d="M0 70L53 70L53 64L105 64L105 64L158 64L158 71L211 71L211 63L263 63L263 63L316 63L316 68L368 68L368 62L421 62L421 57L474 57L474 62L526 62L526 62L579 62L579 55L632 55L632 61L684 61L684 67L737 67L737 60L789 60L789 63L842 63L842 62L895 62L895 56L947 56L947 61L1000 61L1000 58L1000 151L1000 151L947 151L947 151L895 151L895 151L842 151L842 151L789 151L789 151L737 151L737 151L684 151L684 151L632 151L632 151L579 151L579 151L526 151L526 151L474 151L474 151L421 151L421 151L368 151L368 151L316 151L316 151L263 151L263 151L211 151L211 151L158 151L158 151L105 151L105 151L53 151L53 151L0 151Z" fill="#8a0000"></path><path d="M0 82L53 82L53 90L105 90L105 81L158 81L158 81L211 81L211 80L263 80L263 93L316 93L316 85L368 85L368 84L421 84L421 91L474 91L474 87L526 87L526 77L579 77L579 81L632 81L632 92L684 92L684 92L737 92L737 84L789 84L789 85L842 85L842 88L895 88L895 88L947 88L947 93L1000 93L1000 77L1000 151L1000 151L947 151L947 151L895 151L895 151L842 151L842 151L789 151L789 151L737 151L737 151L684 151L684 151L632 151L632 151L579 151L579 151L526 151L526 151L474 151L474 151L421 151L421 151L368 151L368 151L316 151L316 151L263 151L263 151L211 151L211 151L158 151L158 151L105 151L105 151L53 151L53 151L0 151Z" fill="#8a0000"></path><path d="M0 101L53 101L53 103L105 103L105 101L158 101L158 107L211 107L211 106L263 106L263 110L316 110L316 110L368 110L368 102L421 102L421 103L474 103L474 105L526 105L526 100L579 100L579 110L632 110L632 98L684 98L684 102L737 102L737 107L789 107L789 105L842 105L842 102L895 102L895 102L947 102L947 110L1000 110L1000 104L1000 151L1000 151L947 151L947 151L895 151L895 151L842 151L842 151L789 151L789 151L737 151L737 151L684 151L684 151L632 151L632 151L579 151L579 151L526 151L526 151L474 151L474 151L421 151L421 151L368 151L368 151L316 151L316 151L263 151L263 151L211 151L211 151L158 151L158 151L105 151L105 151L53 151L53 151L0 151Z" fill="#710604"></path><path d="M0 130L53 130L53 129L105 129L105 124L158 124L158 130L211 130L211 131L263 131L263 122L316 122L316 132L368 132L368 127L421 127L421 120L474 120L474 134L526 134L526 132L579 132L579 122L632 122L632 128L684 128L684 135L737 135L737 123L789 123L789 136L842 136L842 131L895 131L895 126L947 126L947 123L1000 123L1000 121L1000 151L1000 151L947 151L947 151L895 151L895 151L842 151L842 151L789 151L789 151L737 151L737 151L684 151L684 151L632 151L632 151L579 151L579 151L526 151L526 151L474 151L474 151L421 151L421 151L368 151L368 151L316 151L316 151L263 151L263 151L211 151L211 151L158 151L158 151L105 151L105 151L53 151L53 151L0 151Z" fill="#590a05"></path></svg>